<svg id="Capa_1" enable-background="new 0 0 512 512" height="512" viewBox="0 0 512 512" width="512" xmlns="http://www.w3.org/2000/svg"><g><path d="m468.661 193.112c-15.627 0-88.71 0-99.325 0v-73.534c24.073.408 50.479-4.781 67.652-21.954 29.135-29.136 20.668-81.678 20.293-83.901-1.063-6.3-5.998-11.236-12.298-12.297-2.222-.376-54.771-8.841-83.908 20.294-2.447 2.447-4.686 5.12-6.737 7.993-2.05-2.874-4.29-5.546-6.737-7.993-29.135-29.135-81.685-20.67-83.907-20.294-6.3 1.062-11.236 5.997-12.298 12.297-.375 2.223-8.842 54.764 20.293 83.901 17.141 17.141 43.51 22.368 67.646 21.954v73.534c-10.607 0-83.693 0-99.319 0-8.284 0-15 6.716-15 15.001s6.716 15.001 15 15.001h16.823v191.382c0 53.763 43.738 97.504 97.499 97.504s97.499-43.74 97.499-97.504v-191.382h16.823c8.284 0 15-6.716 15-15.001.001-8.284-6.715-15.001-14.999-15.001zm-39.961-163.105c.455 14.252-1.575 35.053-12.925 46.404-11.144 11.144-31.8 13.426-46.439 13.158v-13.453c1.088-10.451 4.225-24.453 12.953-33.182 11.356-11.356 32.17-13.376 46.411-12.927zm-135.798 46.403c-11.354-11.354-13.382-32.165-12.927-46.402 14.251-.452 35.062 1.574 46.412 12.925 8.714 8.714 11.855 22.682 12.948 33.128v13.507c-14.639.268-35.289-2.014-46.433-13.158zm128.936 338.086c0 37.221-30.28 67.502-67.499 67.502s-67.499-30.282-67.499-67.502v-11.374h29.685c8.284 0 15-6.716 15-15.001s-6.716-15.001-15-15.001h-29.685v-30h29.685c8.284 0 15-6.716 15-15.001s-6.716-15.001-15-15.001h-29.685v-30.001h29.685c8.284 0 15-6.716 15-15.001s-6.716-15.001-15-15.001h-29.685v-30.001h134.998z"/><path d="m191.244 85.086c-2.679-4.641-7.631-7.5-12.99-7.5h-36.317l-21.647-37.499c-2.68-4.641-7.632-7.5-12.991-7.5h-45.42c-8.284 0-15 6.716-15 15.001s6.716 15.001 15 15.001h36.76l17.32 30.003-18.153 31.443c-2.68 4.641-2.68 10.36 0 15.001l18.097 31.346-13.649 23.011h-36.429c-5.359 0-10.311 2.86-12.99 7.5l-22.486 38.948c-2.68 4.641-2.68 10.36 0 15.001l22.486 38.948c2.679 4.641 7.631 7.5 12.99 7.5h36.311l16.554 28.675c4.144 7.177 13.318 9.633 20.491 5.491 7.174-4.142 9.632-13.316 5.491-20.491l-16.555-28.675 13.826-23.947h31.34c8.284 0 15-6.716 15-15.001s-6.716-15.001-15-15.001h-31.34l-13.766-23.845 13.649-23.011h36.429c5.359 0 10.311-2.86 12.99-7.5l22.486-38.948c2.68-4.641 2.68-10.36 0-15.001zm-130.585 162.254 13.826-23.947h27.651l13.826 23.947-13.826 23.947h-27.651zm108.934-91.858h-27.651l-13.826-23.947 13.826-23.947h27.651l13.826 23.947z"/></g></svg>