<svg height="512pt" viewBox="0 -13 512 511" width="512pt" xmlns="http://www.w3.org/2000/svg"><path d="m496.941406 102.214844c-71.988281 0-80.308594-1.316406-100.914062 4.621094 6.453125-30.8125-.875-51.460938-6.625-72.585938-6.636719-24.355469-31.835938-38.769531-56.191406-32.132812-24.386719 6.640624-38.796876 31.726562-32.136719 56.1875l5.011719 18.410156c2.679687 9.851562-1.09375 19.980468-8.984376 25.894531-9.65625 0-72.269531 0-82.203124 0-7.890626-5.914063-11.664063-16.042969-8.984376-25.894531l5.011719-18.410156c6.625-24.335938-7.625-49.515626-32.136719-56.1875-24.355468-6.636719-49.554687 7.777343-56.191406 32.125-5.71875 21.023437-13.097656 41.695312-6.625 72.59375-20.714844-5.96875-29.238281-4.621094-100.914062-4.621094-8.3125 0-15.058594 6.738281-15.058594 15.058594 0 62.867187 49.230469 114.457031 111.164062 118.242187 29.191407 193.585937 27.613282 183.425781 27.929688 184.601563 4.265625 36.605468 35.46875 65.09375 73.195312 65.09375h87.421876c37.695312 0 68.867187-28.441407 73.1875-64.992188 0 0 12.878906-95.253906 27.515624-184.671875 62.132813-3.574219 111.585938-55.253906 111.585938-118.273437 0-8.320313-6.746094-15.058594-15.058594-15.058594zm-91.578125 102.621094c.976563-6.167969 8.597657-35.246094-11.292969-65.375 20.871094-8.972657 31.996094-7.128907 86.527344-7.128907-6.503906 37.75-37.035156 67.375-75.234375 72.503907zm-105.652343 250.257812h-87.421876c-24.023437 0-43.578124-19.550781-43.578124-43.570312 0-7.203126 0-13.207032 0-20.257813 0-24.023437 19.554687-43.582031 43.578124-43.582031h87.421876c24.023437 0 43.578124 19.558594 43.578124 43.582031v20.257813c0 23.992187-19.519531 43.570312-43.578124 43.570312zm53.960937-113.964844c-13.453125-14.484375-32.667969-23.5625-53.960937-23.5625h-87.421876c-21.644531 0-41.140624 9.378906-54.632812 24.285156-28.449219-188.617187-7.339844-48.667968-22.871094-151.589843-3.347656-30.789063 20.808594-57.535157 51.601563-57.535157h59.664062c-37.238281 78.125 30.238281 166.851563 116.195313 150.394532-3.539063 22.238281-5.808594 38.257812-8.574219 58.007812zm-322.269531-208.796875c55.191406 0 65.875-1.75 86.527344 7.128907-19.382813 29.363281-12.589844 57.457031-11.394532 65.355468-38.148437-5.160156-68.628906-34.773437-75.132812-72.484375zm120.261718-90.171875c2.230469-8.222656 10.757813-13.277344 19.214844-10.992187 8.34375 2.285156 13.261719 10.859375 10.992188 19.214843-5.195313 19.0625-10.921875 32.949219-3.203125 52.59375-10.5625.996094-20.769531 4.039063-30.078125 8.867188-10.230469-28.75-2.480469-49.3125 3.074218-69.683594zm208.671876 0c5.605468 20.558594 13.285156 40.992188 3.074218 69.683594-9.308594-4.828125-19.515625-7.871094-30.078125-8.867188 7.722657-19.65625 1.996094-33.527343-3.203125-52.582031-2.28125-8.417969 2.691406-16.953125 10.992188-19.226562 8.324218-2.269531 16.949218 2.660156 19.214844 10.992187zm7.128906 208.445313c-71.453125 25.121093-131.078125-58.277344-86.398438-117.878907h44.546875c31.101563 0 54.886719 27.070313 51.601563 57.464844-.164063 1.003906-6.925782 42.96875-9.75 60.414063zm0 0"/><path d="m313.222656 184.347656c-8.3125 0-15.058594 6.746094-15.058594 15.058594v13.210938c0 8.339843 6.765626 15.058593 15.058594 15.058593 8.34375 0 15.058594-6.777343 15.058594-15.058593v-13.210938c0-8.207031-6.640625-15.058594-15.058594-15.058594zm0 0"/><path d="m198.777344 184.347656c-8.414063 0-15.058594 6.847656-15.058594 15.058594v13.210938c0 8.277343 6.707031 15.058593 15.058594 15.058593 8.285156 0 15.058594-6.714843 15.058594-15.058593v-13.210938c0-8.3125-6.746094-15.058594-15.058594-15.058594zm0 0"/><path d="m219.859375 382.964844c-8.3125 0-15.058594 6.734375-15.058594 15.058594v9.363281c0 8.300781 6.722657 15.058593 15.058594 15.058593 8.300781 0 15.058594-6.726562 15.058594-15.058593 0-.773438 0-8.054688 0-9.363281 0-8.324219-6.746094-15.058594-15.058594-15.058594zm0 0"/><path d="m292.140625 382.964844c-8.3125 0-15.058594 6.734375-15.058594 15.058594v9.363281c0 8.296875 6.71875 15.058593 15.058594 15.058593 8.285156 0 15.058594-6.707031 15.058594-15.058593 0-3.789063 0-5.574219 0-9.363281 0-8.324219-6.746094-15.058594-15.058594-15.058594zm0 0"/></svg>