<?xml version="1.0" encoding="iso-8859-1"?>
<!-- Generator: Adobe Illustrator 19.0.0, SVG Export Plug-In . SVG Version: 6.00 Build 0)  -->
<svg version="1.1" id="Capa_1" xmlns="http://www.w3.org/2000/svg" xmlns:xlink="http://www.w3.org/1999/xlink" x="0px" y="0px"
	 viewBox="0 0 512.002 512.002" style="enable-background:new 0 0 512.002 512.002;" xml:space="preserve">
<g>
	<g>
		<path d="M497.001,451.052h-9.346c5.137-34.043,12.724-59.296,23.843-101.148c1.515-5.7-0.452-11.759-5.025-15.483
			c-4.574-3.725-10.905-4.422-16.18-1.785c-21.131,10.565-39.68,24.964-54.844,42.114c12.514-63.186,31.408-115.296,50.77-162.78
			c2.442-5.991,0.77-12.873-4.151-17.073c-4.921-4.199-11.98-4.773-17.513-1.418c-38.295,23.209-72.132,54.097-99.162,90.322
			c31.685-92.183,76.629-163.702,113.72-230.464c3.462-6.231,2.061-14.038-3.353-18.675c-5.413-4.638-13.342-4.825-18.969-0.45
			c-62.694,48.759-138.516,100.711-200.6,209.615C194.812,138.261,116.572,81.932,55.21,34.211
			c-5.626-4.376-13.556-4.189-18.969,0.45c-5.413,4.638-6.814,12.444-3.353,18.675c37.261,67.069,81.268,138.606,111.958,231.86
			c-26.11-36.831-58.538-67.694-95.064-90.289c-5.361-5.161-15.041-5.657-21.074,0.637c-4.718,4.924-5.499,12.473-1.895,18.484
			c3.811,8.365,31.462,71.239,49.13,160.035c-15.052-16.849-33.385-31.003-54.234-41.428c-5.274-2.638-11.607-1.938-16.18,1.785
			c-4.573,3.724-6.54,9.783-5.025,15.483c11.119,41.854,18.706,67.106,23.843,101.148h-9.346c-8.284,0-15,6.716-15,15
			s6.716,14.9,15,14.9c161.967,0,273.408,0,347.99,0c97.037,0,131.675,0,134.01,0c8.284,0,15-6.616,15-14.9
			S505.285,451.052,497.001,451.052z M54.658,451.052c-3.675-25.823-8.625-46.724-14.924-70.621
			c21.695,18.753,37.607,43.289,45.536,70.621H54.658z M117.527,451.051c-6.375-67.719-22.431-138.289-44.648-201.73
			c56.952,50.224,95.7,123.189,105.977,201.73H117.527z M209.308,451.052C196.836,315.388,156.622,214.42,95.435,103.539
			c109.689,90.797,180.233,202.149,200.325,347.513H209.308z M273.129,275.309c42.837-81.386,93.823-131.257,142.885-171.272
			c-46.765,83.641-84.878,164.566-105.642,269.201C301.033,339.197,288.605,306.518,273.129,275.309z M329.14,451.051
			c9.175-77.835,49.867-151.566,111.017-203.195c-20.619,56.833-38.474,121.735-45.927,203.195H329.14z M457.343,451.052h-30.61
			c7.929-27.332,23.84-51.869,45.534-70.621C465.968,404.328,461.018,425.229,457.343,451.052z"/>
	</g>
</g>
<g>
</g>
<g>
</g>
<g>
</g>
<g>
</g>
<g>
</g>
<g>
</g>
<g>
</g>
<g>
</g>
<g>
</g>
<g>
</g>
<g>
</g>
<g>
</g>
<g>
</g>
<g>
</g>
<g>
</g>
</svg>
