<?xml version="1.0" standalone="no"?>
<!DOCTYPE svg PUBLIC "-//W3C//DTD SVG 20010904//EN"
 "http://www.w3.org/TR/2001/REC-SVG-20010904/DTD/svg10.dtd">
<svg version="1.0" xmlns="http://www.w3.org/2000/svg"
 width="512.000000pt" height="512.000000pt" viewBox="0 0 512.000000 512.000000"
 preserveAspectRatio="xMidYMid meet">

<g transform="translate(0.000000,512.000000) scale(0.100000,-0.100000)"
fill="#000000" stroke="none">
<path d="M2347 5105 c-694 -113 -1136 -671 -1138 -1433 0 -160 10 -246 46
-392 54 -215 137 -421 280 -698 47 -89 85 -165 85 -167 0 -3 -133 -5 -295 -5
-316 0 -338 -3 -381 -51 -31 -35 -944 -2170 -944 -2209 0 -50 35 -107 80 -130
39 -20 53 -20 2480 -20 2427 0 2441 0 2480 20 45 23 80 80 80 130 0 39 -913
2174 -944 2209 -43 48 -65 51 -381 51 -162 0 -295 2 -295 4 0 3 40 83 89 178
230 443 322 750 322 1068 -1 347 -82 634 -254 890 -64 96 -241 273 -337 337
-144 96 -309 166 -485 204 -122 27 -368 34 -488 14z m363 -300 c168 -25 293
-72 426 -161 307 -203 474 -551 474 -986 0 -375 -190 -834 -600 -1452 -111
-166 -348 -492 -424 -581 l-26 -30 -26 30 c-72 85 -312 413 -424 581 -296 445
-483 824 -566 1149 -27 103 -29 123 -29 310 0 173 3 214 23 305 29 128 79 259
141 364 54 92 179 229 265 291 219 155 499 221 766 180z m-840 -2786 c34 -50
90 -131 126 -181 35 -50 63 -92 61 -93 -1 -2 -299 -154 -662 -340 -363 -186
-668 -342 -678 -347 -15 -8 -14 -2 6 44 13 29 115 268 228 531 l204 477 327 0
327 0 61 -91z m2318 -430 c123 -286 222 -522 220 -523 -2 -2 -334 -175 -738
-385 l-735 -381 -155 0 -155 0 -462 463 -462 462 265 135 c146 74 270 135 274
135 5 0 55 -56 112 -125 120 -144 121 -145 170 -158 61 -17 111 2 164 62 123
136 365 455 528 694 l97 142 327 0 327 0 223 -521z m-2447 -1287 c-247 -1
-654 -1 -905 0 l-455 3 66 155 67 156 451 231 450 231 388 -386 387 -387 -449
-3z m2897 238 l101 -235 -285 -3 c-156 -1 -413 -1 -570 0 l-286 3 464 241
c254 133 466 239 469 235 4 -3 52 -112 107 -241z"/>
<path d="M2487 4209 c-130 -19 -266 -117 -324 -235 -43 -84 -57 -153 -50 -246
14 -203 169 -372 377 -409 251 -45 500 151 517 409 21 297 -225 524 -520 481z
m154 -322 c67 -44 88 -135 47 -197 -37 -54 -72 -74 -128 -74 -56 0 -91 20
-127 74 -63 91 12 220 127 220 32 0 58 -7 81 -23z"/>
</g>
</svg>
