<?xml version="1.0" standalone="no"?>
<!DOCTYPE svg PUBLIC "-//W3C//DTD SVG 20010904//EN"
 "http://www.w3.org/TR/2001/REC-SVG-20010904/DTD/svg10.dtd">
<svg version="1.0" xmlns="http://www.w3.org/2000/svg"
 width="512.000000pt" height="512.000000pt" viewBox="0 0 512.000000 512.000000"
 preserveAspectRatio="xMidYMid meet">

<g transform="translate(0.000000,512.000000) scale(0.100000,-0.100000)"
fill="#000000" stroke="none">
<path d="M1087 5098 c-22 -13 -45 -38 -57 -63 -19 -39 -20 -62 -20 -477 l0
-436 -67 26 c-91 33 -238 41 -338 18 -263 -62 -481 -297 -562 -604 -21 -81
-25 -120 -25 -237 -1 -145 12 -225 53 -355 27 -83 107 -249 154 -319 19 -29
34 -54 33 -55 -2 -1 -27 -13 -56 -26 -68 -31 -134 -96 -169 -168 -28 -57 -28
-59 -28 -252 l0 -195 33 -67 c38 -77 92 -130 171 -167 l56 -26 1016 -5 1016
-5 -344 -595 c-205 -355 -350 -617 -359 -649 -32 -108 0 -240 81 -330 21 -22
67 -55 103 -73 l67 -33 715 0 715 0 67 33 c36 18 82 51 103 73 80 89 113 223
81 330 -9 32 -154 294 -359 649 l-344 595 1016 5 1016 5 56 26 c79 37 133 90
171 167 l33 67 0 195 c0 192 0 196 -27 250 -37 75 -100 137 -178 174 l-65 31
-337 3 -338 4 0 200 0 200 30 -26 c48 -40 101 -50 260 -50 165 0 227 13 350
71 141 68 251 208 291 373 18 70 18 295 0 375 -16 70 -56 116 -116 135 -69 21
-319 24 -399 6 -171 -40 -295 -137 -371 -288 l-45 -90 0 268 0 268 28 -26 c45
-42 93 -52 252 -52 103 0 165 5 215 17 168 42 310 146 378 274 59 114 72 170
72 328 -1 174 -15 247 -59 291 -44 44 -89 55 -256 61 -114 4 -160 2 -214 -11
-185 -44 -321 -160 -392 -333 l-23 -57 -3 236 c-3 221 -4 238 -24 264 -70 94
-190 96 -251 5 -22 -33 -23 -41 -23 -270 l0 -236 -45 92 c-102 209 -283 313
-542 313 -194 0 -288 -25 -325 -87 -41 -69 -54 -318 -24 -447 38 -160 146
-300 286 -368 118 -57 193 -72 360 -72 165 0 215 11 259 55 l31 31 0 -279 0
-278 -46 93 c-56 116 -130 194 -233 245 -111 55 -197 71 -365 64 -160 -6 -208
-17 -247 -56 -33 -34 -46 -77 -59 -206 -37 -352 125 -605 438 -686 106 -27
238 -34 346 -19 79 11 93 16 127 47 l39 35 0 -206 0 -206 -900 0 -900 0 37 57
c93 146 170 349 192 507 50 355 -96 718 -356 890 l-42 28 24 32 c34 45 82 150
101 226 22 85 22 287 0 390 -22 105 -53 135 -160 155 -172 33 -402 13 -515
-45 l-41 -20 0 86 c0 98 -16 142 -63 176 -44 31 -113 34 -160 6z m2359 -479
c89 -46 135 -132 150 -283 l7 -69 -74 6 c-145 13 -235 60 -280 149 -25 49 -43
151 -34 197 l6 33 88 -4 c69 -3 99 -10 137 -29z m1372 -54 c-12 -189 -101
-272 -312 -292 l-69 -6 5 87 c5 71 12 99 38 152 49 101 127 143 264 144 l79 0
-5 -85z m-3073 3 c13 -88 -23 -219 -78 -283 -50 -60 -178 -105 -297 -105 l-60
0 0 53 c0 28 7 82 14 118 38 178 139 258 328 259 l87 0 6 -42z m-856 -724 c32
-17 81 -59 119 -100 72 -80 95 -94 153 -94 55 0 73 11 159 100 100 102 147
125 260 125 73 0 93 -4 142 -28 85 -42 170 -132 218 -230 74 -155 87 -320 40
-502 -42 -164 -194 -421 -282 -478 -38 -24 -43 -25 -326 -32 -312 -8 -641 -1
-709 16 -53 14 -101 65 -184 192 -110 171 -161 327 -162 502 -1 177 48 316
152 427 93 101 177 140 291 135 61 -3 87 -9 129 -33z m2546 -258 c55 -23 100
-69 125 -128 22 -50 48 -214 36 -225 -13 -13 -183 15 -227 37 -91 46 -131 104
-149 215 -13 84 -6 123 23 127 42 6 152 -9 192 -26z m1382 -62 c-11 -188 -98
-269 -308 -290 l-72 -7 5 87 c9 139 68 238 165 277 33 14 146 26 187 20 l29
-4 -6 -83z m-19 -1230 c21 -14 22 -22 22 -144 0 -104 -3 -132 -16 -144 -14
-14 -231 -16 -2244 -16 -2013 0 -2230 2 -2244 16 -13 12 -16 40 -16 144 0 122
1 130 22 144 34 24 4442 24 4476 0z m-1895 -1348 c185 -321 337 -589 337 -597
0 -7 -7 -21 -17 -31 -15 -17 -49 -18 -661 -18 -587 0 -647 2 -664 17 -10 9
-18 23 -18 31 0 16 671 1182 680 1182 3 0 157 -263 343 -584z"/>
</g>
</svg>
