<?xml version="1.0" standalone="no"?>
<!DOCTYPE svg PUBLIC "-//W3C//DTD SVG 20010904//EN"
 "http://www.w3.org/TR/2001/REC-SVG-20010904/DTD/svg10.dtd">
<svg version="1.0" xmlns="http://www.w3.org/2000/svg"
 width="512.000000pt" height="512.000000pt" viewBox="0 0 512.000000 512.000000"
 preserveAspectRatio="xMidYMid meet">

<g transform="translate(0.000000,512.000000) scale(0.100000,-0.100000)"
fill="#000000" stroke="none">
<path d="M2039 5118 c-1 -2 -22 -106 -48 -232 l-47 -230 -29 -8 c-83 -25 -211
-76 -302 -120 l-102 -49 -197 132 -197 131 -369 -370 -370 -369 132 -198 132
-197 -25 -47 c-39 -72 -87 -187 -123 -291 l-32 -95 -229 -45 -228 -46 0 -524
0 -524 228 -46 229 -45 32 -95 c36 -104 84 -219 123 -291 l25 -47 -132 -197
-132 -198 370 -369 369 -370 197 131 197 132 102 -49 c91 -44 219 -95 302
-120 l29 -8 46 -230 46 -229 524 0 524 0 46 228 45 228 95 33 c107 37 222 86
291 123 l47 25 197 -132 198 -132 369 370 370 369 -131 197 -131 196 49 103
c43 90 90 211 118 302 l9 29 230 46 229 46 0 524 0 524 -229 46 -230 46 -9 29
c-28 91 -75 212 -118 302 l-49 103 131 196 131 197 -370 369 -369 370 -198
-132 -197 -132 -57 30 c-73 39 -163 77 -281 118 l-95 34 -45 227 -46 228 -522
3 c-287 1 -522 1 -523 0z m835 -485 c20 -104 39 -195 42 -204 3 -10 47 -27
137 -51 156 -43 313 -108 454 -189 57 -32 106 -59 110 -59 4 0 83 50 176 112
l168 112 196 -197 197 -196 -112 -168 c-62 -93 -112 -172 -112 -177 0 -5 15
-34 34 -65 95 -157 175 -347 221 -523 19 -73 33 -109 44 -112 9 -3 100 -22
204 -42 l187 -37 0 -277 0 -277 -187 -37 c-104 -20 -195 -39 -204 -42 -11 -3
-25 -39 -44 -112 -46 -176 -126 -366 -221 -523 -19 -31 -34 -60 -34 -65 0 -5
50 -84 112 -177 l112 -168 -197 -196 -196 -197 -168 112 c-93 62 -172 112
-176 112 -4 0 -49 -24 -100 -53 -163 -95 -348 -169 -524 -212 -48 -11 -74 -22
-77 -33 -3 -10 -22 -101 -42 -204 l-37 -188 -277 0 -277 0 -37 187 c-20 104
-39 195 -42 205 -3 11 -29 22 -77 33 -176 43 -343 110 -513 207 -56 32 -106
58 -110 58 -5 0 -84 -50 -177 -112 l-168 -112 -196 197 -197 196 112 168 c62
93 112 172 112 177 0 5 -15 34 -34 65 -95 157 -176 349 -221 523 -19 74 -33
109 -44 112 -9 3 -100 22 -203 42 l-188 37 0 277 0 277 188 37 c103 20 194 39
203 42 10 3 27 47 51 137 43 156 108 313 189 454 32 57 59 106 59 110 0 4 -50
83 -112 176 l-112 168 197 196 196 197 168 -112 c93 -62 172 -112 177 -112 4
0 54 26 110 58 170 97 337 164 513 207 48 11 74 22 77 33 3 10 22 101 42 205
l37 187 277 0 277 0 37 -187z"/>
<path d="M2310 4126 c-657 -116 -1156 -592 -1303 -1244 -19 -84 -22 -127 -22
-322 0 -195 3 -238 22 -322 141 -625 606 -1090 1231 -1231 84 -19 127 -22 322
-22 196 0 238 3 323 23 664 149 1152 673 1248 1340 17 122 6 422 -20 539 -137
616 -607 1086 -1223 1224 -119 27 -460 36 -578 15z m476 -301 c456 -80 849
-423 994 -866 43 -129 60 -245 60 -399 0 -198 -33 -360 -106 -520 -41 -88
-124 -230 -136 -230 -5 0 -26 11 -47 24 -21 14 -66 36 -100 50 -131 56 -128
56 -892 56 -668 0 -710 -1 -782 -20 -68 -17 -173 -62 -235 -101 -25 -16 -29
-12 -92 98 -61 105 -107 218 -137 330 -34 132 -44 382 -19 526 90 531 509 955
1039 1052 103 18 345 18 453 0z m523 -2208 c36 -12 66 -28 68 -34 6 -17 -116
-104 -228 -162 -187 -99 -365 -141 -589 -141 -223 0 -398 42 -588 140 -112 57
-235 145 -229 163 2 6 32 22 68 34 64 22 65 22 749 22 684 0 685 0 749 -22z"/>
<path d="M2402 3526 c-134 -33 -285 -136 -366 -250 -239 -334 -120 -795 249
-967 100 -46 161 -59 278 -59 113 0 187 18 292 70 150 74 268 211 321 373 24
71 28 98 28 202 0 104 -4 131 -28 202 -33 101 -107 214 -184 283 -65 58 -211
133 -290 149 -70 15 -234 13 -300 -3z m313 -318 c62 -32 139 -112 167 -175 31
-68 31 -208 0 -276 -28 -62 -104 -142 -167 -175 -45 -24 -61 -27 -155 -27 -94
0 -110 3 -155 27 -63 33 -139 113 -167 175 -31 68 -31 208 0 276 39 85 132
169 222 198 14 5 66 7 115 6 74 -3 99 -8 140 -29z"/>
</g>
</svg>
